<?xml version="1.0" standalone="no"?><!DOCTYPE svg PUBLIC "-//W3C//DTD SVG 1.1//EN" "http://www.w3.org/Graphics/SVG/1.1/DTD/svg11.dtd"><svg t="1608101439873" class="icon" viewBox="0 0 1024 1024" version="1.1" xmlns="http://www.w3.org/2000/svg" p-id="1424" xmlns:xlink="http://www.w3.org/1999/xlink" width="200" height="200"><defs><style type="text/css"></style></defs><path d="M930.909091 837.818182c0 0 93.090909 0 93.090909-93.090909L1024 93.090909c0-93.090909-93.090909-93.090909-93.090909-93.090909L93.090909 0c0 0-93.090909 0-93.090909 93.090909l0 651.636364c0 93.090909 93.090909 93.090909 93.090909 93.090909l269.963636 0 0 93.090909L279.272727 1024l465.454545 0-102.4-93.090909 0-93.090909L930.909091 837.818182zM46.545455 94.952727C46.545455 46.545455 93.090909 46.545455 93.090909 46.545455l837.818182 0c0 0 46.545455 0 46.545455 48.407273L977.454545 605.090909 46.545455 605.090909 46.545455 94.952727zM381.346909 972.288 409.274182 930.909091l0-93.090909L595.781818 837.818182l0 93.090909 38.493091 41.378909L381.346909 972.288zM93.090909 791.272727c0 0-46.545455 0-46.545455-48.407273L46.545455 651.636364l930.909091 0 0 91.229091C977.454545 791.272727 930.909091 791.272727 930.909091 791.272727L93.090909 791.272727z" p-id="1425"></path></svg>